<?xml version="1.0" encoding="utf-8"?>
<!-- Generator: Adobe Illustrator 25.2.3, SVG Export Plug-In . SVG Version: 6.00 Build 0)  -->
<svg version="1.1" id="Layer_1" xmlns="http://www.w3.org/2000/svg" xmlns:xlink="http://www.w3.org/1999/xlink" x="0px" y="0px"
	 viewBox="0 0 1.14 1.4" style="enable-background:new 0 0 1.14 1.4;" xml:space="preserve">
<style type="text/css">
	.st0{fill:#FFCD05;}
</style>
<g>
	<path class="st0" d="M0.52,0.17C0.53,0.16,0.52,0.13,0.5,0.12L0.43,0.07C0.41,0.06,0.39,0.06,0.38,0.08l-0.1,0.14L0.43,0.3
		L0.52,0.17z"/>
	<path class="st0" d="M0.65,0.41L0.72,0.3c0.01-0.02,0.01-0.04-0.01-0.05L0.63,0.2C0.61,0.19,0.59,0.2,0.58,0.21L0.5,0.34L0.65,0.41
		z"/>
	<path class="st0" d="M0.67,0.6l0.07,0.03c0.02,0.01,0.04,0,0.05-0.01l0.13-0.19C0.92,0.41,0.91,0.39,0.9,0.37L0.83,0.33
		C0.82,0.32,0.79,0.33,0.78,0.34l-0.13,0.2C0.64,0.56,0.64,0.59,0.67,0.6z"/>
	<path class="st0" d="M1.08,0.5L1.02,0.46C1,0.44,0.98,0.45,0.97,0.47L0.86,0.64C0.84,0.66,0.85,0.68,0.87,0.69l0.07,0.03
		c0.02,0.01,0.04,0,0.05-0.01l0.11-0.16C1.11,0.53,1.1,0.51,1.08,0.5z"/>
	<path class="st0" d="M0.96,0.8C0.96,0.8,0.96,0.8,0.96,0.8c-0.02,0-0.03,0-0.05-0.01L0.56,0.63H0.54l0.16,0.31
		C0.7,0.97,0.7,0.99,0.68,1C0.66,1.01,0.64,1,0.63,0.98L0.45,0.63H0.29c-0.02,0-0.04-0.02-0.04-0.04c0-0.02,0.02-0.04,0.04-0.04
		h0.24c0.01,0,0.02-0.01,0.03-0.02l0.02-0.03C0.6,0.49,0.59,0.46,0.57,0.45L0.27,0.3c-0.02-0.01-0.04,0-0.05,0.01L0.05,0.57
		c-0.01,0.01-0.01,0.03,0,0.04l0.28,0.37C0.33,1,0.33,1.01,0.33,1.02L0.26,1.29C0.26,1.32,0.27,1.34,0.3,1.34h0.57
		c0.02,0,0.04-0.02,0.04-0.04V1.1c0-0.01,0.01-0.02,0.02-0.03c0,0,0.01-0.01,0.02-0.02C1,1.02,1.04,0.95,1.04,0.87V0.76
		C1.02,0.79,0.99,0.8,0.96,0.8z"/>
</g>
</svg>
