<?xml version="1.0" encoding="utf-8"?>
<!-- Generator: Adobe Illustrator 25.2.3, SVG Export Plug-In . SVG Version: 6.00 Build 0)  -->
<svg version="1.1" id="Layer_1" xmlns="http://www.w3.org/2000/svg" xmlns:xlink="http://www.w3.org/1999/xlink" x="0px" y="0px"
	 viewBox="0 0 500 500" style="enable-background:new 0 0 500 500;" xml:space="preserve">
<style type="text/css">
	.st0{fill:#801517;}
	.st1{fill:#D22026;}
	.st2{fill:#1364B0;}
	.st3{fill:#EF3D23;}
	.st4{fill:#12294D;}
	.st5{fill:#BF2026;}
</style>
<g>
	<path class="st0" d="M466.44,245.21c-1.37-25.37-4.44-49-14.28-72.86c-6.02-14.6-38-61.61-58.58-58.94c0,0,8.18,20.43,11.47,28.9
		c4.27,10.98,12.15,35.07,5.73,53.08c0.1,0.54,0.24,1.05,0.33,1.59c1.57,9.22,2.45,18.78,2.45,28.66l-7.19,60.94
		c-0.52,3.76-1.19,7.94-1.94,12.38c1.41,2.34,3.01,4.52,4.86,6.41c4.82-3.47,7.97-8.2,8.57-14.03c0.05,10.47-2.54,38.53,11.19,39.32
		c3.35-8.35,2.81-23.7,4.52-29.95c0.02,23.29,15.12,88.56,45.72,94.62C454.53,358.28,468.61,285.51,466.44,245.21z"/>
	<path class="st1" d="M87.44,225.65c0-9.77,0.86-19.22,2.39-28.34c-0.18-0.55-0.32-1.08-0.53-1.64
		c-6.59-18.05,1.35-42.32,5.65-53.36c3.29-8.47,11.47-28.9,11.47-28.9c-20.58-2.67-52.56,44.34-58.58,58.94
		c-9.84,23.86-12.91,47.49-14.28,72.86c-2.18,40.3,11.91,113.07-12.86,150.13c30.6-6.06,45.69-71.34,45.72-94.62
		c1.72,6.25,1.17,21.6,4.52,29.95c13.74-0.79,11.15-28.85,11.19-39.32c0.59,5.83,3.75,10.56,8.57,14.03
		c2.67-2.74,4.83-6.03,6.63-9.64c-0.98-3.24-1.89-6.32-2.71-9.15L87.44,225.65z"/>
	<path class="st2" d="M131.25,243.43c-0.74-0.56-1.41-1.19-1.98-1.91c-15.15-19.48-4.33-45.45,15.15-58.44
		c39.9-29.02,85.86-1.8,106.08,35.79v-2.78V64.02h-13.42c-37.18,0-75.21,17.29-103.63,46.74c-21.65,22.43-37.73,51.91-43.57,86.22
		c4.75,11.84,11.69,23.19,21.37,33.71C116.74,237.11,123.8,241.55,131.25,243.43z"/>
	<path class="st3" d="M133.45,216.09c16.42,22.14,8.33,35.34-2.2,27.34c-7.45-1.88-14.51-6.32-20-12.73
		c-9.68-10.52-16.62-21.86-21.37-33.71c-0.02,0.11-0.03,0.21-0.05,0.32c-1.53,9.12-2.39,18.57-2.39,28.34l7.19,60.94
		c0.82,2.83,1.73,5.91,2.71,9.15c12.63,41.87,37.16,114.32,36.12,140.23c35.52-6.97,31.13-88.05,46.28-66.41
		c22.59-26.69,46.64-85.67,70.77-7.56v-94.22C218.31,216.09,170.19,216.09,133.45,216.09z M179.05,303.21
		c-25.1,0-45.45-34.45-45.45-34.45s20.35-0.17,45.45-0.17s45.45,17.31,45.45,17.31S204.15,303.21,179.05,303.21z"/>
	<path class="st4" d="M250.5,218.87c20.23-37.59,66.19-64.81,106.09-35.79c19.48,12.99,30.3,38.96,15.15,58.44
		c-0.57,0.72-1.24,1.35-1.98,1.91c7.45-1.88,14.51-6.32,20-12.73c9.68-10.52,16.62-21.86,21.36-33.71
		c-0.09-0.54-0.24-1.05-0.33-1.59c-6.06-33.62-21.92-62.56-43.23-84.63c-28.42-29.45-66.46-46.74-103.64-46.74H250.5v152.07V218.87z
		"/>
	<path class="st5" d="M413.57,225.65c0-9.89-0.88-19.44-2.45-28.66c-4.74,11.84-11.69,23.19-21.36,33.71
		c-5.49,6.41-12.55,10.86-20,12.73c-10.53,8-18.21-27.34-2.2-34.64c-35.52,5.01-93.53,19.29-117.05,58.99v94.22
		c34.95-72.16,43.79-19.14,66.38,7.56c32.86-36.66,21.43,59.43,57.14,66.41c-0.05,0.73,21.86-86.84,30.41-137.01
		c0.75-4.44,1.42-8.61,1.94-12.38L413.57,225.65z M321.96,303.21c-25.1,0-45.45-17.32-45.45-17.32s20.35-17.31,45.45-17.31
		c25.11,0,45.46,0.17,45.46,0.17S347.06,303.21,321.96,303.21z"/>
</g>
</svg>
